<?xml version="1.0" encoding="utf-8"?>
<!-- Generator: Adobe Illustrator 27.5.0, SVG Export Plug-In . SVG Version: 6.00 Build 0)  -->
<svg version="1.1" xmlns="http://www.w3.org/2000/svg" xmlns:xlink="http://www.w3.org/1999/xlink" x="0px" y="0px"
	 viewBox="0 0 750 500" style="enable-background:new 0 0 750 500;" xml:space="preserve">
<g id="BACKGROUND">
	<rect style="fill:#C0F9D9;" width="750" height="500"/>
</g>
<g id="OBJECTS">
	<g>
		<defs>
			<rect id="SVGID_1_" width="750" height="500"/>
		</defs>
		<clipPath id="SVGID_00000005226418346865681580000009992115767328371346_">
			<use xlink:href="#SVGID_1_"  style="overflow:visible;"/>
		</clipPath>
		<path style="clip-path:url(#SVGID_00000005226418346865681580000009992115767328371346_);fill:#ABEFC6;" d="M773.489,56.629
			c-51.855-6.322-103.92,8.328-152.978,26.279c-49.058,17.951-97.365,39.506-148.93,47.868
			c-53.605,8.692-109.543,2.509-159.955-17.681c-23.112-9.256-44.99-21.347-67.945-30.986
			C161.237,47.49,65.271,46.407-17.933,79.155c-1.226,0.483,2.026-1.214,0.709-1.174c-0.041,0.765-0.035,1.532-0.077,2.297V216.73
			c0-0.269,4.03,0.03,4.03-0.238h782.925L773.489,56.629z"/>
		<g style="clip-path:url(#SVGID_00000005226418346865681580000009992115767328371346_);">
			<path style="fill:#94E0B5;" d="M760.53,124.916c-54.466,1.346-102.114,39.709-156.37,44.681
				c-17.633,1.616-35.432-0.372-53.087,0.968c-31.839,2.417-61.773,15.48-92.789,23.068c-45.127,11.04-93.078,10.32-137.853-2.071
				c-39.246-10.861-76.721-30.602-117.413-32.139c-32.858-1.241-66.112,9.566-98.257,2.646c-12.355-2.66-24.015-7.859-36.207-11.19
				c-25.894-7.075-54.099-5.384-78.962,4.734l3.173,349.163l771.384-2.357L760.53,124.916z"/>
			<polygon style="fill:#94E0B5;" points="310.782,136.415 291.072,196.974 330.491,196.974 			"/>
			<polygon style="fill:#94E0B5;" points="337.051,162.596 317.342,223.156 356.761,223.156 			"/>
			<polygon style="fill:#94E0B5;" points="360.368,156.601 340.659,217.161 380.077,217.161 			"/>
			<polygon style="fill:#94E0B5;" points="482.65,137.842 462.94,198.402 502.359,198.402 			"/>
			<polygon style="fill:#94E0B5;" points="605.974,120.189 586.264,180.749 625.683,180.749 			"/>
			<polygon style="fill:#94E0B5;" points="462.94,158.749 443.231,219.309 482.65,219.309 			"/>
			<polygon style="fill:#94E0B5;" points="293.513,145.223 273.803,205.783 313.222,205.783 			"/>
			<polygon style="fill:#94E0B5;" points="273.803,126.321 254.094,186.881 293.513,186.881 			"/>
			<polygon style="fill:#94E0B5;" points="235.667,114.943 215.958,175.503 255.377,175.503 			"/>
			<polygon style="fill:#94E0B5;" points="158.677,132.316 138.968,192.876 178.387,192.876 			"/>
		</g>
		<g style="clip-path:url(#SVGID_00000005226418346865681580000009992115767328371346_);">
			<path style="fill:#82CEA1;" d="M779.414,228.089c-103.976,21.565-201.304,78.708-307.492,78.201
				c-59.607-0.284-117.351-18.896-175.528-31.881C191.596,251.017,82.787,245.713-23.789,258.8c-0.374,1.099-0.602,1.001-0.976,2.1
				v124.999l809.687,3.126L779.414,228.089z"/>
			
				<rect x="561.606" y="-5.723" transform="matrix(0.9974 -0.0719 0.0719 0.9974 -9.1624 42.4208)" style="fill:#82CEA1;" width="46.49" height="308.487"/>
			<rect x="687.545" y="-37.093" style="fill:#82CEA1;" width="46.49" height="308.487"/>
			
				<rect x="105.12" y="-37.093" transform="matrix(0.995 0.1003 -0.1003 0.995 12.392 -12.2794)" style="fill:#82CEA1;" width="46.49" height="308.487"/>
			
				<rect x="251.832" y="-33.055" transform="matrix(0.999 0.045 -0.045 0.999 5.7231 -11.9015)" style="fill:#82CEA1;" width="30.843" height="308.487"/>
			<rect x="296.19" y="-10.134" style="fill:#82CEA1;" width="11.479" height="308.487"/>
			
				<rect x="226.618" y="-8.021" transform="matrix(0.995 0.1003 -0.1003 0.995 15.8307 -22.5589)" style="fill:#82CEA1;" width="11.479" height="308.487"/>
			
				<rect x="476.303" y="-8.795" transform="matrix(0.995 0.1003 -0.1003 0.995 18.0039 -47.6095)" style="fill:#82CEA1;" width="12.693" height="328.208"/>
			
				<rect x="486.745" y="-5.726" transform="matrix(0.9824 -0.1869 0.1869 0.9824 -20.9119 94.948)" style="fill:#82CEA1;" width="12.693" height="328.208"/>
			
				<rect x="-13.739" y="-33.054" transform="matrix(0.9974 -0.0719 0.0719 0.9974 -8.686 0.9967)" style="fill:#82CEA1;" width="46.49" height="308.487"/>
			<polygon style="fill:#94E0B5;" points="291.923,333.276 758.881,299.643 758.881,343.853 383.317,352.338 			"/>
		</g>
		<g style="clip-path:url(#SVGID_00000005226418346865681580000009992115767328371346_);">
			<g>
				<g>
					<path style="fill:#519B74;" d="M212.071-13.368h-45.08v259.43c0,32.425-3.351,64.762-10,96.498l0,0l64.436-3.177
						c-6.215-30.718-9.356-61.981-9.356-93.325V-13.368z"/>
					<path style="fill:#519B74;" d="M222.071,339.351l-0.644,0.032c0.154,0.758,0.3,1.518,0.457,2.275L222.071,339.351z"/>
				</g>
				
					<rect x="150.649" y="-11.38" transform="matrix(0.9572 -0.2895 0.2895 0.9572 -8.8095 47.7466)" style="fill:#519B74;" width="12.683" height="130.063"/>
				
					<rect x="213.748" y="-6.173" transform="matrix(0.9695 0.2451 -0.2451 0.9695 26.3662 -51.6556)" style="fill:#519B74;" width="13.952" height="172.557"/>
				<path style="fill:#519B74;" d="M256.043,327.705c4.666-6.002,7.827-12.458,9.344-18.591c-6.67,2.419-13.53,6.939-19.5,13.259
					c2.067-8.077,2.287-15.952,0.928-22.659c-5.241,5.294-9.681,12.768-12.337,21.577c-1.5-9.08-4.942-17.067-9.459-22.992
					c-1.809,5.299-2.673,11.51-2.375,18.127c-3.798-5.417-8.269-9.805-12.932-12.897c0.038,7.493,2.206,15.973,6.608,24.124
					c4.391,8.131,10.275,14.582,16.502,18.724c0.006,0.008,0.011,0.015,0.017,0.023c0.001-0.003,0.002-0.006,0.003-0.009
					c0.009,0.006,0.017,0.012,0.026,0.018l0,0c7.493-0.038,15.973-2.206,24.124-6.608c8.151-4.402,14.615-10.303,18.756-16.548
					C269.602,323.283,262.792,324.75,256.043,327.705z"/>
				<path style="fill:#519B74;" d="M156.9,312.896c1.871-7.369,2.181-14.55,1.115-20.777c-5.142,4.888-9.617,11.777-12.556,19.959
					c-1.341-8.228-4.294-15.533-8.226-21.134c-2.682,6.95-3.756,15.577-2.661,24.712c-5.012-7.719-11.364-13.658-17.877-17.278
					c0.465,5.58,2.161,11.617,5.085,17.56c-5.65-3.442-11.504-5.672-17.015-6.637c3.036,6.85,8.42,13.752,15.718,19.457
					c7.28,5.691,15.255,9.246,22.621,10.546c0.008,0.005,0.016,0.01,0.025,0.014c0-0.003-0.001-0.006-0.001-0.01
					c0.01,0.002,0.021,0.004,0.031,0.006v0c6.85-3.036,13.752-8.42,19.457-15.718c5.705-7.298,9.264-15.295,10.557-22.675
					C167.552,303.413,161.9,307.486,156.9,312.896z"/>
			</g>
			<path style="fill:#519B74;" d="M776.982,357.401c-281.84,25.12-566.71-65.561-846.592-23.957
				c-0.367,1.102,4.048,6.387,3.68,7.488V457.02l849.084,0.677L776.982,357.401z"/>
			<circle style="fill:#519B74;" cx="456.739" cy="384.472" r="59.869"/>
			<circle style="fill:#519B74;" cx="396.87" cy="356.661" r="30.351"/>
			<g>
				<g>
					<path style="fill:#519B74;" d="M580.086-48.576l-52.484-2.561l-14.736,302.037c-1.842,37.75-7.58,75.208-17.123,111.778l0,0
						l75.2-0.038c-5.491-36.116-7.372-72.692-5.592-109.184L580.086-48.576z"/>
				</g>
				
					<rect x="576.72" y="-39.827" transform="matrix(0.9564 0.292 -0.292 0.9564 43.237 -168.1573)" style="fill:#519B74;" width="16.263" height="201.135"/>
			</g>
			<path style="fill:none;stroke:#519B74;stroke-width:2;stroke-miterlimit:10;" d="M378.199-12
				c-0.048,0.007,177.728,129.642,382.086,86.276"/>
			<path style="fill:none;stroke:#519B74;stroke-width:2;stroke-miterlimit:10;" d="M388.965-35.814
				c0,0,153.344,158.849,361.035,164.414"/>
			<path style="fill:none;stroke:#519B74;stroke-width:2;stroke-miterlimit:10;" d="M-7.457,42.774
				c0,0,206.246,82.783,359.049-57.993"/>
			<path style="fill:#34BF73;" d="M-8.747,338.521c0.021,2.341,475.005,30.944,475.005,30.944l-263.025-3.109
				c-7.702-0.091-9.994,10.442-2.95,13.559l105.479,46.679l-314.509-61.77V338.521z"/>
		</g>
		<g style="clip-path:url(#SVGID_00000005226418346865681580000009992115767328371346_);">
			<path style="fill:#2D6B4C;" d="M789.232,331.625c-46.365,1.07-92.759,2.141-138.991,5.805
				c-142.559,11.298-281.895,47.07-420.392,82.699c-0.734,0,0.581,1.966-0.154,1.966v39.672l551.179,3.289L789.232,331.625z"/>
			<g>
				<path style="fill:#2D6B4C;" d="M611.512,335.3l-12.774,14.791l10.018-16.395c-4.817-2.711-9.892-5.015-15.18-6.87l-7.678,16.3
					l4.887-17.233c-5.664-1.791-11.555-3.067-17.62-3.779l-5.556,19.071l2.331-19.396c-2.654-0.221-5.336-0.34-8.047-0.34
					c-2.96,0-5.886,0.142-8.778,0.405l-1.658,21.348l-1.816-20.975c-4.764,0.609-9.419,1.567-13.937,2.85l2.313,24.164l-6.1-22.996
					c-5.354,1.764-10.499,3.985-15.389,6.622l7.246,23.036l-10.677-21.089c-28.088,16.679-46.917,47.313-46.917,82.35
					c0,52.861,42.852,95.713,95.713,95.713s95.713-42.852,95.713-95.713C657.604,382.468,639.145,352.086,611.512,335.3z"/>
			</g>
			<circle style="fill:#2D6B4C;" cx="479.217" cy="393.143" r="46.485"/>
			<path style="fill:#239150;" d="M361.376,449.907c179.312-26.214,340.003-71.27,399.861-89.507l0,44.956l-241.157,52.697
				C520.079,458.053,325.487,455.153,361.376,449.907z"/>
		</g>
		<g style="clip-path:url(#SVGID_00000005226418346865681580000009992115767328371346_);">
			<path style="fill:#174932;" d="M779.413,372.077c-103.976,21.565-201.304,78.708-307.492,78.201
				c-59.607-0.284-117.351-18.896-175.528-31.881C192.207,395.141,58.812,338.71-47.169,351.509
				c-1.303,0.157-2.401,1.053-2.827,2.294l-0.011,0.033l25.242,156.051l809.687,3.126L779.413,372.077z"/>
			<g>
				<g>
					<g>
						<path style="fill:#174932;" d="M132.973-96.047l-89.59-4.371L29.229,197.495C26.086,261.933,16.29,325.874,0,388.299v0
							l128.365-0.066c-9.374-61.65-12.584-124.084-9.545-186.376L132.973-96.047z"/>
						<path style="fill:#174932;" d="M129.648,413.311l-1.283,0.001c0.231,1.522,0.449,3.045,0.687,4.566L129.648,413.311z"/>
					</g>
					
						<rect x="11.093" y="-74.693" transform="matrix(0.9685 -0.2491 0.2491 0.9685 -5.6763 6.4407)" style="fill:#174932;" width="23.042" height="200.689"/>
					
						<rect x="149.935" y="-42.719" transform="matrix(0.866 0.5 -0.5 0.866 58.7898 -70.6677)" style="fill:#174932;" width="22.656" height="234.177"/>
				</g>
				<path style="fill:#174932;" d="M181.171,117.094c5.733,5.055,13.229,6.824,20.192,5.461c0.481-7.079-2.212-14.294-7.945-19.35
					c-5.733-5.055-13.229-6.824-20.192-5.461C172.745,104.824,175.438,112.039,181.171,117.094z"/>
				<path style="fill:#174932;" d="M3.382,97.094c5.733,5.055,13.229,6.824,20.192,5.461c0.481-7.079-2.212-14.294-7.945-19.35
					C9.896,78.15,2.4,76.382-4.563,77.745C-5.044,84.824-2.351,92.039,3.382,97.094z"/>
				<path style="fill:#174932;" d="M144.741,20.954c-6.768,3.552-11.095,9.923-12.307,16.914c6.441,2.975,14.143,3.034,20.911-0.518
					c6.768-3.552,11.095-9.923,12.307-16.914C159.211,17.462,151.509,17.403,144.741,20.954z"/>
				<path style="fill:#174932;" d="M253.432-2.862c-4.944,5.829-6.569,13.358-5.072,20.293c7.087,0.345,14.249-2.487,19.193-8.316
					c4.944-5.829,6.569-13.358,5.072-20.293C265.539-11.523,258.376-8.691,253.432-2.862z"/>
				<path style="fill:#174932;" d="M198.204,95.686c7.606-0.753,14.008-5.036,17.753-11.062c-4.855-5.174-11.972-8.118-19.578-7.365
					c-7.606,0.753-14.008,5.036-17.753,11.062C183.481,93.496,190.598,96.44,198.204,95.686z"/>
				<path style="fill:#174932;" d="M235.525,58.555c4.799,5.949,11.89,8.955,18.983,8.785c1.666-6.897,0.227-14.463-4.572-20.412
					c-4.799-5.949-11.89-8.955-18.983-8.785C229.286,45.04,230.725,52.606,235.525,58.555z"/>
				<path style="fill:#174932;" d="M205.54,70.175c6.823,3.445,14.523,3.265,20.917,0.189c-1.321-6.971-5.748-13.274-12.571-16.719
					c-6.823-3.445-14.523-3.265-20.917-0.189C194.29,60.428,198.717,66.73,205.54,70.175z"/>
				<path style="fill:#174932;" d="M227.865,34.18c6.683,3.709,14.384,3.831,20.893,1.008c-1.047-7.018-5.224-13.489-11.907-17.198
					c-6.683-3.709-14.384-3.831-20.893-1.008C217.005,24,221.182,30.471,227.865,34.18z"/>
				<path style="fill:#174932;" d="M149.303,3.599c4.261,6.346,11.061,9.961,18.142,10.412c2.263-6.724,1.492-14.388-2.769-20.733
					c-4.261-6.346-11.061-9.961-18.142-10.412C144.271-10.41,145.043-2.747,149.303,3.599z"/>
				<path style="fill:#174932;" d="M14.703,130.397c7.328-2.174,12.807-7.586,15.35-14.21c-5.743-4.166-13.288-5.716-20.615-3.542
					c-7.328,2.174-12.807,7.586-15.35,14.21C-0.169,131.021,7.375,132.571,14.703,130.397z"/>
			</g>
		</g>
		<g style="clip-path:url(#SVGID_00000005226418346865681580000009992115767328371346_);">
			<path style="fill:#174932;" d="M670.886-26.037l-50.944-0.294l1.265,182.165l-0.898,144.184
				c2.694,54.353-0.237,108.838-8.746,162.588v0l107.75-10.678c-12.971-50.976-29.164-158.454-31.768-210.997L670.886-26.037z"/>
			<path style="fill:#174932;" d="M716.877,448.008l-1.077,0.107c0.32,1.258,0.629,2.519,0.955,3.776L716.877,448.008z"/>
		</g>
		<path style="clip-path:url(#SVGID_00000005226418346865681580000009992115767328371346_);fill:#174932;" d="M418.206,91.18
			c30.851,13.608,70.653,2.188,89.596-25.707c1.152-1.696,2.296-3.503,4.063-4.543c1.944-1.144,4.318-1.172,6.571-1.291
			c19.124-1.012,37.526-11.43,48.234-27.308c1.748-2.591,3.381-5.401,5.983-7.134c3.291-2.193,7.495-2.262,11.44-2.537
			c12.266-0.853,24.504-4.515,34.486-11.692c9.983-7.177,17.538-18.05,19.504-30.187L418.206,91.18z"/>
		<path style="clip-path:url(#SVGID_00000005226418346865681580000009992115767328371346_);fill:#174932;" d="M865.607,95.484
			c-30.851,13.608-70.653,2.188-89.596-25.707c-1.151-1.696-2.296-3.504-4.063-4.543c-1.944-1.144-4.318-1.172-6.571-1.291
			c-19.124-1.012-37.526-11.43-48.234-27.308c-1.748-2.591-3.382-5.401-5.983-7.134c-3.291-2.193-7.495-2.262-11.44-2.537
			c-12.266-0.853-24.504-4.514-34.486-11.692c-9.983-7.177-17.538-18.05-19.504-30.187C637.5-16.325,865.607,95.484,865.607,95.484z
			"/>
		<path style="clip-path:url(#SVGID_00000005226418346865681580000009992115767328371346_);fill:#174932;" d="M839.551,180.383
			c-33.602,2.807-67.507-20.964-76.322-53.51c-0.536-1.978-1.029-4.06-2.36-5.619c-1.465-1.715-3.701-2.515-5.791-3.362
			c-17.75-7.191-31.75-23.039-36.697-41.54c-0.807-3.02-1.436-6.208-3.33-8.694c-2.397-3.146-6.348-4.582-9.988-6.127
			c-11.317-4.805-21.693-12.256-28.791-22.295c-7.098-10.04-10.696-22.781-8.598-34.896L839.551,180.383z"/>
		<g style="clip-path:url(#SVGID_00000005226418346865681580000009992115767328371346_);">
			<path d="M33.483,255.006c0.794,3.621-1.497,7.2-5.118,7.994c-3.621,0.794-7.2-1.497-7.994-5.118
				c-0.794-3.621,1.497-7.2,5.118-7.994C29.11,249.094,32.689,251.385,33.483,255.006z"/>
			<path d="M49.602,255.206c0.794,3.621-1.497,7.2-5.118,7.994c-3.621,0.794-7.2-1.497-7.994-5.118
				c-0.794-3.621,1.497-7.2,5.118-7.994C45.228,249.293,48.807,251.585,49.602,255.206z"/>
			<path d="M58.141,278.044c0.794,3.621-1.497,7.2-5.118,7.994c-3.621,0.794-7.2-1.497-7.994-5.118
				c-0.794-3.621,1.497-7.2,5.118-7.994C53.768,272.131,57.347,274.423,58.141,278.044z"/>
			<path d="M76.668,264.934c0.794,3.621-1.497,7.2-5.118,7.994c-3.621,0.794-7.2-1.497-7.994-5.118
				c-0.794-3.621,1.497-7.2,5.118-7.994C72.294,259.021,75.873,261.313,76.668,264.934z"/>
			<path d="M72.529,242.044c0.794,3.621-1.497,7.2-5.118,7.994c-3.621,0.794-7.2-1.497-7.994-5.118
				c-0.794-3.621,1.497-7.2,5.118-7.994C68.156,236.132,71.735,238.423,72.529,242.044z"/>
			<path d="M17.692,275.948c0.794,3.621-1.497,7.2-5.118,7.994c-3.621,0.794-7.2-1.497-7.994-5.118
				c-0.794-3.621,1.497-7.2,5.118-7.994S16.898,272.327,17.692,275.948z"/>
			<path d="M51.811,239.717c0.794,3.621-1.497,7.2-5.118,7.994c-3.621,0.794-7.2-1.497-7.994-5.118
				c-0.794-3.621,1.497-7.2,5.118-7.994C47.438,233.805,51.017,236.096,51.811,239.717z"/>
			<path d="M35.705,273.919c0.794,3.621-1.497,7.2-5.118,7.994c-3.621,0.794-7.2-1.497-7.994-5.118
				c-0.794-3.621,1.497-7.2,5.118-7.994C31.332,268.007,34.911,270.298,35.705,273.919z"/>
			<path d="M63.43,292.683c0.794,3.621-1.497,7.2-5.118,7.994c-3.621,0.794-7.2-1.497-7.994-5.118
				c-0.794-3.621,1.497-7.2,5.118-7.994C59.056,286.771,62.635,289.062,63.43,292.683z"/>
			<path d="M1.009,301.828c0.794,3.621-1.497,7.2-5.118,7.994c-3.621,0.794-7.2-1.497-7.994-5.118
				c-0.794-3.621,1.497-7.2,5.118-7.994C-3.364,295.916,0.215,298.208,1.009,301.828z"/>
			<path d="M18.627,295.639c0.794,3.621-1.497,7.2-5.118,7.994c-3.621,0.794-7.2-1.497-7.994-5.118
				c-0.794-3.621,1.497-7.2,5.118-7.994C14.253,289.727,17.832,292.018,18.627,295.639z"/>
			<path d="M40.897,320.131c0.794,3.621-1.497,7.2-5.118,7.994c-3.621,0.794-7.2-1.497-7.994-5.118
				c-0.794-3.621,1.497-7.2,5.118-7.994C36.523,314.219,40.103,316.51,40.897,320.131z"/>
			<path d="M21.021,317.619c0.794,3.621-1.497,7.2-5.118,7.994c-3.621,0.794-7.2-1.497-7.994-5.118
				c-0.794-3.621,1.497-7.2,5.118-7.994C16.647,311.707,20.227,313.998,21.021,317.619z"/>
			<path d="M41.603,300.803c0.794,3.621-1.497,7.2-5.118,7.994c-3.621,0.794-7.2-1.497-7.994-5.118
				c-0.794-3.621,1.497-7.2,5.118-7.994C37.229,294.891,40.808,297.183,41.603,300.803z"/>
			<path d="M4.184,322.755c0.794,3.621-1.497,7.2-5.118,7.994c-3.621,0.794-7.2-1.497-7.994-5.118
				c-0.794-3.621,1.497-7.2,5.118-7.994C-0.189,316.842,3.39,319.134,4.184,322.755z"/>
			<path d="M794.62,449.879c-113.007-16.74-226.931,14.652-340.836,23.396c-105.111,8.069-211.109-3.281-314.027-26.109
				C78.769,433.64,15.882,416.011-45.173,429.236c-1.062,3.657,2.502,5.182,3.035,8.952v69.458l839.944,1.29L794.62,449.879z"/>
			<path d="M189.046,435.983c11.646-17.651,19.02-36.235,21.906-53.568c-17.975,8.146-36.024,22.158-51.22,40.969
				c3.992-22.843,2.906-44.731-2.308-63.038c-13.393,15.809-24.095,37.494-29.565,62.494c-6.116-24.858-17.381-46.263-31.184-61.723
				c-3.875,15.086-4.934,32.495-2.68,50.779c-11.701-14.204-25.044-25.409-38.64-32.978c1.718,20.77,9.559,43.82,23.522,65.475
				c13.928,21.602,31.634,38.225,49.797,48.37c0.017,0.019,0.034,0.04,0.051,0.06c0.002-0.009,0.004-0.018,0.006-0.026
				c0.025,0.014,0.051,0.03,0.076,0.044l0,0c20.77-1.718,43.82-9.559,65.475-23.522c21.655-13.962,38.31-31.721,48.447-49.931
				C225.693,420.798,207.123,426.335,189.046,435.983z"/>
			<path d="M763.581,261.09c-9.4-18.942-21.755-34.662-35.285-45.873c-1.998,19.634,1.036,42.281,9.654,64.875
				c-17.737-14.938-37.202-25.006-55.647-29.706c6.93,19.527,20.291,39.682,39.149,56.982c-24.562-7.214-48.728-8.242-69.033-4.086
				c11.091,10.936,25.606,20.606,42.544,27.853c-18.161,2.971-34.557,8.869-47.936,16.814c18.817,8.96,42.683,13.774,68.422,12.595
				c25.676-1.176,48.949-8.121,66.851-18.718c0.026-0.005,0.052-0.009,0.078-0.014c-0.006-0.006-0.013-0.012-0.02-0.019
				c0.025-0.015,0.051-0.029,0.076-0.043h0c8.96-18.817,13.774-42.683,12.595-68.422c-1.178-25.739-8.153-49.065-18.795-66.985
				C768.885,221.778,764.332,240.613,763.581,261.09z"/>
			<path d="M579.476,465.371c12.916,45.906,29.532,87.497,47.659,121.674c-2.353-38.615-9.861-82.768-22.777-128.675
				c-12.916-45.906-29.532-87.497-47.659-121.674C559.053,375.311,566.561,419.465,579.476,465.371z"/>
			<path d="M602.445,456.018c7.444,47.104,19.07,90.356,33.064,126.423c2.19-38.625-0.089-83.354-7.533-130.458
				c-7.444-47.104-19.07-90.356-33.064-126.423C592.722,364.184,595.001,408.914,602.445,456.018z"/>
			<path d="M252.757,375.282c0.239-0.13,0.485-0.246,0.72-0.386c0.112-0.068,0.225-0.137,0.336-0.207
				c1.043-0.653,0.421-2.273-0.791-2.059c-0.13,0.023-0.259,0.047-0.388,0.072c-0.269,0.054-0.528,0.133-0.793,0.196
				c0.077-0.262,0.169-0.517,0.237-0.782c0.031-0.128,0.062-0.256,0.091-0.384c0.276-1.199-1.31-1.905-2.016-0.896
				c-0.075,0.108-0.15,0.216-0.224,0.325c-0.152,0.228-0.28,0.467-0.422,0.7c-0.13-0.239-0.246-0.485-0.386-0.72
				c-0.068-0.112-0.137-0.224-0.207-0.336c-0.653-1.043-2.273-0.421-2.059,0.791c0.023,0.13,0.047,0.259,0.072,0.388
				c0.054,0.267,0.132,0.525,0.195,0.789c-0.261-0.077-0.515-0.168-0.779-0.236c-0.135-0.033-0.27-0.066-0.405-0.097
				c-1.2-0.276-1.905,1.31-0.897,2.016c0.114,0.08,0.228,0.158,0.343,0.236c0.226,0.15,0.463,0.277,0.693,0.418
				c-0.237,0.129-0.48,0.244-0.714,0.382c-0.119,0.072-0.237,0.144-0.355,0.218c-1.043,0.654-0.421,2.273,0.792,2.06
				c0.137-0.024,0.273-0.049,0.409-0.076c0.266-0.054,0.523-0.132,0.786-0.195c-0.076,0.259-0.167,0.512-0.235,0.775
				c-0.033,0.134-0.066,0.269-0.097,0.405c-0.276,1.2,1.31,1.905,2.016,0.897c0.08-0.114,0.158-0.228,0.236-0.343
				c0.15-0.226,0.277-0.463,0.418-0.694c0.129,0.237,0.244,0.48,0.382,0.714c0.072,0.119,0.144,0.237,0.218,0.355
				c0.653,1.044,2.273,0.421,2.059-0.792c-0.024-0.137-0.049-0.273-0.076-0.409c-0.054-0.268-0.132-0.526-0.196-0.791
				c0.26,0.077,0.514,0.168,0.778,0.235c0.128,0.031,0.255,0.062,0.384,0.092c1.199,0.276,1.905-1.31,0.896-2.016
				c-0.108-0.076-0.216-0.15-0.325-0.224C253.229,375.553,252.99,375.425,252.757,375.282z"/>
			<path d="M646.36,366.017c0.24-0.13,0.485-0.246,0.721-0.386c0.112-0.068,0.225-0.137,0.336-0.207
				c1.043-0.653,0.42-2.273-0.791-2.059c-0.13,0.023-0.259,0.047-0.388,0.072c-0.269,0.054-0.528,0.133-0.793,0.196
				c0.077-0.262,0.169-0.517,0.237-0.782c0.031-0.128,0.062-0.255,0.091-0.384c0.276-1.199-1.31-1.905-2.016-0.896
				c-0.076,0.108-0.15,0.216-0.224,0.325c-0.152,0.228-0.28,0.467-0.422,0.7c-0.13-0.239-0.246-0.485-0.386-0.72
				c-0.068-0.112-0.137-0.224-0.207-0.336c-0.653-1.043-2.273-0.421-2.059,0.791c0.023,0.13,0.047,0.259,0.072,0.388
				c0.054,0.267,0.132,0.525,0.195,0.789c-0.261-0.077-0.515-0.168-0.78-0.236c-0.134-0.033-0.269-0.065-0.405-0.097
				c-1.2-0.276-1.905,1.31-0.897,2.016c0.114,0.08,0.228,0.158,0.343,0.236c0.226,0.15,0.463,0.277,0.694,0.418
				c-0.237,0.129-0.48,0.244-0.714,0.382c-0.119,0.072-0.237,0.144-0.355,0.218c-1.044,0.654-0.421,2.273,0.791,2.06
				c0.137-0.024,0.273-0.049,0.409-0.076c0.266-0.054,0.523-0.132,0.786-0.195c-0.076,0.259-0.167,0.512-0.235,0.775
				c-0.033,0.134-0.065,0.269-0.097,0.405c-0.276,1.2,1.31,1.905,2.016,0.897c0.08-0.114,0.158-0.228,0.236-0.343
				c0.15-0.226,0.277-0.463,0.418-0.694c0.129,0.237,0.244,0.48,0.382,0.714c0.072,0.119,0.144,0.237,0.218,0.355
				c0.654,1.044,2.273,0.421,2.06-0.791c-0.024-0.137-0.049-0.273-0.076-0.409c-0.054-0.268-0.132-0.526-0.196-0.791
				c0.26,0.077,0.514,0.168,0.778,0.235c0.128,0.031,0.255,0.062,0.384,0.091c1.199,0.276,1.905-1.31,0.897-2.016
				c-0.108-0.076-0.216-0.15-0.325-0.224C646.832,366.287,646.593,366.159,646.36,366.017z"/>
			<path d="M354.797,457.262c0.239-0.13,0.485-0.246,0.72-0.386c0.112-0.068,0.225-0.137,0.336-0.207
				c1.043-0.653,0.421-2.273-0.791-2.059c-0.13,0.023-0.259,0.047-0.388,0.072c-0.269,0.054-0.528,0.133-0.793,0.196
				c0.077-0.262,0.169-0.517,0.237-0.782c0.031-0.128,0.062-0.255,0.091-0.384c0.276-1.199-1.31-1.905-2.016-0.896
				c-0.076,0.108-0.15,0.216-0.224,0.325c-0.152,0.228-0.28,0.467-0.422,0.7c-0.13-0.239-0.246-0.485-0.386-0.72
				c-0.068-0.112-0.137-0.224-0.207-0.336c-0.653-1.043-2.273-0.421-2.059,0.791c0.023,0.13,0.047,0.259,0.072,0.388
				c0.054,0.267,0.132,0.525,0.195,0.789c-0.261-0.077-0.515-0.168-0.78-0.236c-0.134-0.033-0.269-0.066-0.405-0.097
				c-1.2-0.276-1.905,1.31-0.897,2.016c0.114,0.08,0.228,0.158,0.343,0.236c0.226,0.15,0.463,0.277,0.694,0.418
				c-0.237,0.129-0.48,0.244-0.714,0.382c-0.119,0.072-0.237,0.144-0.354,0.218c-1.043,0.654-0.421,2.273,0.792,2.06
				c0.137-0.024,0.273-0.049,0.409-0.076c0.266-0.054,0.524-0.132,0.786-0.195c-0.076,0.259-0.167,0.512-0.235,0.775
				c-0.033,0.134-0.065,0.269-0.097,0.405c-0.276,1.2,1.31,1.905,2.016,0.897c0.08-0.114,0.158-0.228,0.236-0.343
				c0.15-0.226,0.277-0.463,0.418-0.694c0.129,0.237,0.244,0.48,0.382,0.714c0.072,0.119,0.144,0.237,0.218,0.355
				c0.654,1.044,2.273,0.421,2.059-0.792c-0.024-0.137-0.049-0.273-0.076-0.409c-0.054-0.268-0.132-0.526-0.196-0.791
				c0.26,0.077,0.514,0.168,0.778,0.235c0.128,0.031,0.255,0.062,0.384,0.092c1.199,0.276,1.905-1.31,0.896-2.016
				c-0.108-0.076-0.216-0.15-0.325-0.224C355.268,457.532,355.029,457.404,354.797,457.262z"/>
			<path d="M146.612,343.52c0.271,0.029,0.538,0.073,0.812,0.092c0.131,0.008,0.263,0.015,0.394,0.021
				c1.229,0.056,1.638-1.631,0.52-2.144c-0.12-0.055-0.24-0.109-0.36-0.162c-0.252-0.108-0.51-0.191-0.764-0.29
				c0.212-0.171,0.433-0.329,0.64-0.509c0.098-0.087,0.196-0.175,0.293-0.264c0.909-0.829,0.005-2.312-1.148-1.883
				c-0.123,0.046-0.246,0.093-0.369,0.14c-0.255,0.102-0.496,0.225-0.745,0.335c0.029-0.271,0.073-0.538,0.092-0.812
				c0.008-0.131,0.015-0.262,0.021-0.394c0.056-1.229-1.631-1.638-2.144-0.52c-0.055,0.12-0.109,0.24-0.162,0.36
				c-0.108,0.25-0.19,0.507-0.288,0.76c-0.171-0.211-0.328-0.431-0.507-0.637c-0.092-0.104-0.184-0.207-0.278-0.31
				c-0.83-0.909-2.312-0.006-1.884,1.149c0.048,0.13,0.098,0.26,0.148,0.389c0.101,0.252,0.223,0.491,0.333,0.738
				c-0.269-0.029-0.534-0.073-0.805-0.092c-0.138-0.009-0.277-0.016-0.416-0.022c-1.23-0.056-1.639,1.631-0.52,2.144
				c0.126,0.058,0.253,0.115,0.38,0.171c0.25,0.107,0.506,0.189,0.758,0.287c-0.21,0.17-0.429,0.326-0.634,0.504
				c-0.104,0.092-0.207,0.184-0.31,0.278c-0.909,0.83-0.006,2.312,1.149,1.884c0.13-0.048,0.26-0.098,0.389-0.148
				c0.252-0.101,0.491-0.224,0.739-0.333c-0.029,0.269-0.073,0.534-0.092,0.805c-0.008,0.138-0.016,0.277-0.022,0.416
				c-0.056,1.23,1.631,1.639,2.144,0.52c0.058-0.126,0.115-0.253,0.171-0.38c0.108-0.251,0.191-0.508,0.289-0.762
				c0.17,0.211,0.327,0.43,0.506,0.636c0.087,0.098,0.175,0.196,0.264,0.294c0.829,0.909,2.312,0.005,1.883-1.148
				c-0.046-0.124-0.093-0.246-0.14-0.369C146.846,344.011,146.722,343.77,146.612,343.52z"/>
			<path d="M528.407,382.095c0.271,0.029,0.539,0.073,0.812,0.092c0.131,0.008,0.263,0.015,0.394,0.021
				c1.229,0.056,1.638-1.631,0.52-2.144c-0.12-0.055-0.24-0.109-0.36-0.162c-0.252-0.108-0.51-0.191-0.764-0.29
				c0.212-0.171,0.433-0.329,0.64-0.509c0.098-0.087,0.196-0.175,0.294-0.264c0.909-0.83,0.005-2.312-1.148-1.884
				c-0.124,0.046-0.246,0.093-0.369,0.14c-0.255,0.102-0.496,0.225-0.745,0.335c0.029-0.271,0.073-0.538,0.092-0.812
				c0.008-0.131,0.015-0.262,0.021-0.394c0.056-1.229-1.631-1.638-2.144-0.52c-0.055,0.12-0.109,0.24-0.162,0.36
				c-0.108,0.25-0.19,0.507-0.288,0.76c-0.171-0.212-0.328-0.431-0.507-0.638c-0.092-0.104-0.184-0.207-0.278-0.31
				c-0.83-0.909-2.312-0.006-1.884,1.149c0.048,0.13,0.098,0.26,0.148,0.389c0.101,0.252,0.223,0.491,0.333,0.738
				c-0.269-0.029-0.534-0.073-0.805-0.092c-0.138-0.009-0.277-0.016-0.416-0.022c-1.23-0.056-1.639,1.631-0.52,2.144
				c0.126,0.058,0.253,0.115,0.38,0.171c0.25,0.107,0.505,0.189,0.758,0.287c-0.21,0.17-0.429,0.326-0.634,0.504
				c-0.104,0.092-0.207,0.184-0.31,0.278c-0.909,0.83-0.006,2.312,1.149,1.884c0.13-0.048,0.26-0.098,0.389-0.148
				c0.252-0.101,0.491-0.224,0.739-0.333c-0.029,0.269-0.073,0.534-0.092,0.805c-0.008,0.138-0.016,0.277-0.022,0.416
				c-0.056,1.23,1.631,1.639,2.144,0.52c0.058-0.126,0.115-0.253,0.171-0.38c0.108-0.251,0.19-0.508,0.289-0.762
				c0.17,0.211,0.327,0.43,0.506,0.636c0.087,0.098,0.175,0.196,0.264,0.294c0.83,0.909,2.312,0.005,1.884-1.148
				c-0.046-0.124-0.093-0.246-0.14-0.369C528.641,382.586,528.518,382.345,528.407,382.095z"/>
			<path d="M654.535,382.095c0.271,0.029,0.539,0.073,0.812,0.092c0.131,0.008,0.263,0.015,0.394,0.021
				c1.229,0.056,1.638-1.631,0.52-2.144c-0.12-0.055-0.24-0.109-0.36-0.162c-0.252-0.108-0.51-0.191-0.764-0.29
				c0.212-0.171,0.432-0.329,0.64-0.509c0.098-0.087,0.196-0.175,0.294-0.264c0.909-0.83,0.005-2.312-1.148-1.884
				c-0.124,0.046-0.247,0.093-0.369,0.14c-0.255,0.102-0.496,0.225-0.745,0.335c0.029-0.271,0.073-0.538,0.092-0.812
				c0.008-0.131,0.015-0.262,0.021-0.394c0.056-1.229-1.631-1.638-2.144-0.52c-0.055,0.12-0.109,0.24-0.162,0.36
				c-0.108,0.25-0.19,0.507-0.288,0.76c-0.171-0.212-0.328-0.431-0.507-0.638c-0.092-0.104-0.184-0.207-0.278-0.31
				c-0.83-0.909-2.312-0.006-1.884,1.149c0.048,0.13,0.098,0.26,0.148,0.389c0.101,0.252,0.224,0.491,0.333,0.738
				c-0.269-0.029-0.534-0.073-0.805-0.092c-0.138-0.009-0.277-0.016-0.416-0.022c-1.23-0.056-1.639,1.631-0.52,2.144
				c0.126,0.058,0.253,0.115,0.38,0.171c0.25,0.107,0.505,0.189,0.758,0.287c-0.21,0.17-0.429,0.326-0.634,0.504
				c-0.104,0.092-0.207,0.184-0.31,0.278c-0.909,0.83-0.006,2.312,1.149,1.884c0.13-0.048,0.26-0.098,0.389-0.148
				c0.252-0.101,0.491-0.224,0.739-0.333c-0.029,0.269-0.073,0.534-0.092,0.805c-0.008,0.138-0.016,0.277-0.022,0.416
				c-0.056,1.23,1.631,1.639,2.144,0.52c0.058-0.126,0.115-0.253,0.171-0.38c0.108-0.251,0.19-0.508,0.289-0.762
				c0.17,0.211,0.327,0.43,0.506,0.636c0.087,0.098,0.175,0.196,0.264,0.294c0.83,0.909,2.312,0.005,1.883-1.148
				c-0.046-0.124-0.093-0.246-0.14-0.369C654.769,382.586,654.645,382.345,654.535,382.095z"/>
			<path d="M512.131,387.181c0.271,0.029,0.539,0.073,0.812,0.092c0.131,0.008,0.263,0.015,0.394,0.021
				c1.229,0.056,1.638-1.631,0.52-2.144c-0.12-0.055-0.24-0.109-0.36-0.162c-0.252-0.108-0.51-0.191-0.764-0.29
				c0.212-0.171,0.433-0.329,0.64-0.509c0.098-0.087,0.196-0.175,0.294-0.264c0.909-0.83,0.005-2.312-1.149-1.884
				c-0.123,0.046-0.246,0.093-0.369,0.14c-0.255,0.102-0.496,0.225-0.745,0.335c0.029-0.271,0.073-0.538,0.092-0.812
				c0.008-0.131,0.015-0.262,0.021-0.394c0.056-1.229-1.631-1.638-2.144-0.52c-0.055,0.12-0.109,0.24-0.162,0.36
				c-0.108,0.25-0.19,0.507-0.288,0.76c-0.171-0.211-0.328-0.431-0.507-0.637c-0.092-0.104-0.184-0.207-0.278-0.31
				c-0.83-0.909-2.312-0.006-1.884,1.149c0.048,0.13,0.098,0.26,0.148,0.389c0.101,0.252,0.224,0.491,0.333,0.739
				c-0.269-0.029-0.534-0.073-0.805-0.092c-0.138-0.008-0.277-0.016-0.416-0.022c-1.23-0.056-1.639,1.631-0.52,2.144
				c0.126,0.058,0.253,0.115,0.38,0.171c0.25,0.107,0.506,0.189,0.758,0.287c-0.21,0.17-0.429,0.326-0.634,0.504
				c-0.104,0.092-0.207,0.184-0.31,0.278c-0.909,0.83-0.006,2.312,1.149,1.884c0.13-0.048,0.26-0.098,0.389-0.148
				c0.252-0.101,0.491-0.224,0.738-0.333c-0.029,0.269-0.073,0.534-0.092,0.805c-0.008,0.138-0.016,0.277-0.022,0.416
				c-0.056,1.23,1.631,1.639,2.144,0.52c0.058-0.126,0.115-0.253,0.171-0.38c0.108-0.251,0.19-0.508,0.289-0.762
				c0.17,0.211,0.327,0.43,0.506,0.636c0.087,0.098,0.175,0.196,0.264,0.294c0.829,0.909,2.312,0.005,1.884-1.148
				c-0.046-0.124-0.093-0.246-0.14-0.369C512.365,387.672,512.241,387.431,512.131,387.181z"/>
			<path d="M512.131,428.551c0.271,0.029,0.539,0.073,0.812,0.092c0.131,0.008,0.263,0.015,0.394,0.021
				c1.229,0.056,1.638-1.631,0.52-2.144c-0.12-0.055-0.24-0.109-0.36-0.162c-0.252-0.108-0.51-0.191-0.764-0.29
				c0.212-0.171,0.433-0.329,0.64-0.509c0.098-0.087,0.196-0.175,0.294-0.264c0.909-0.829,0.005-2.312-1.149-1.884
				c-0.123,0.046-0.246,0.093-0.369,0.14c-0.255,0.102-0.496,0.225-0.745,0.335c0.029-0.271,0.073-0.539,0.092-0.812
				c0.008-0.131,0.015-0.262,0.021-0.394c0.056-1.229-1.631-1.638-2.144-0.52c-0.055,0.12-0.109,0.24-0.162,0.36
				c-0.108,0.25-0.19,0.507-0.288,0.76c-0.171-0.211-0.328-0.431-0.507-0.637c-0.092-0.104-0.184-0.207-0.278-0.31
				c-0.83-0.909-2.312-0.006-1.884,1.149c0.048,0.13,0.098,0.26,0.148,0.389c0.101,0.252,0.224,0.491,0.333,0.739
				c-0.269-0.029-0.534-0.073-0.805-0.092c-0.138-0.008-0.277-0.016-0.416-0.022c-1.23-0.056-1.639,1.631-0.52,2.144
				c0.126,0.058,0.253,0.115,0.38,0.171c0.25,0.107,0.506,0.189,0.758,0.287c-0.21,0.17-0.429,0.326-0.634,0.504
				c-0.104,0.092-0.207,0.184-0.31,0.278c-0.909,0.83-0.006,2.312,1.149,1.884c0.13-0.048,0.26-0.098,0.389-0.148
				c0.252-0.101,0.491-0.224,0.738-0.333c-0.029,0.269-0.073,0.534-0.092,0.805c-0.008,0.138-0.016,0.277-0.022,0.416
				c-0.056,1.23,1.631,1.639,2.144,0.52c0.058-0.126,0.115-0.253,0.171-0.38c0.108-0.251,0.19-0.508,0.289-0.762
				c0.17,0.211,0.327,0.43,0.506,0.636c0.087,0.098,0.175,0.196,0.264,0.294c0.829,0.909,2.312,0.005,1.884-1.148
				c-0.046-0.124-0.093-0.246-0.14-0.369C512.365,429.042,512.241,428.8,512.131,428.551z"/>
			<path d="M166.469,328.406c0.271,0.029,0.538,0.073,0.812,0.092c0.131,0.008,0.263,0.015,0.394,0.021
				c1.229,0.056,1.638-1.631,0.52-2.144c-0.12-0.055-0.24-0.109-0.36-0.162c-0.252-0.108-0.51-0.191-0.764-0.29
				c0.212-0.171,0.433-0.329,0.639-0.509c0.098-0.087,0.196-0.175,0.294-0.264c0.909-0.829,0.005-2.312-1.148-1.883
				c-0.124,0.046-0.246,0.093-0.369,0.14c-0.255,0.102-0.496,0.225-0.745,0.335c0.029-0.271,0.073-0.539,0.092-0.812
				c0.008-0.131,0.015-0.262,0.021-0.394c0.056-1.229-1.631-1.638-2.144-0.52c-0.055,0.12-0.109,0.24-0.162,0.36
				c-0.108,0.25-0.19,0.507-0.288,0.76c-0.171-0.211-0.328-0.431-0.507-0.637c-0.092-0.104-0.184-0.207-0.278-0.31
				c-0.83-0.909-2.312-0.006-1.884,1.149c0.048,0.13,0.098,0.26,0.148,0.389c0.101,0.252,0.223,0.491,0.333,0.739
				c-0.269-0.029-0.534-0.073-0.805-0.092c-0.138-0.009-0.277-0.016-0.416-0.022c-1.23-0.056-1.639,1.631-0.52,2.144
				c0.126,0.058,0.253,0.115,0.38,0.171c0.25,0.107,0.506,0.189,0.758,0.287c-0.21,0.17-0.429,0.326-0.634,0.504
				c-0.104,0.092-0.207,0.184-0.31,0.278c-0.909,0.83-0.006,2.312,1.149,1.884c0.13-0.048,0.26-0.098,0.389-0.148
				c0.252-0.101,0.491-0.223,0.738-0.333c-0.029,0.269-0.073,0.534-0.092,0.805c-0.008,0.138-0.016,0.277-0.022,0.416
				c-0.056,1.23,1.631,1.639,2.144,0.52c0.058-0.126,0.115-0.253,0.171-0.38c0.108-0.251,0.19-0.508,0.288-0.762
				c0.17,0.211,0.327,0.43,0.506,0.636c0.087,0.098,0.175,0.196,0.264,0.294c0.829,0.909,2.312,0.005,1.884-1.148
				c-0.046-0.124-0.093-0.246-0.14-0.369C166.703,328.897,166.579,328.656,166.469,328.406z"/>
			<path d="M69.985,343.837c0.271,0.029,0.539,0.073,0.812,0.092c0.131,0.008,0.263,0.015,0.394,0.021
				c1.229,0.056,1.638-1.631,0.52-2.144c-0.12-0.055-0.24-0.109-0.36-0.162c-0.252-0.108-0.51-0.191-0.764-0.29
				c0.212-0.171,0.433-0.329,0.64-0.509c0.098-0.087,0.196-0.175,0.294-0.264c0.909-0.829,0.005-2.312-1.149-1.883
				c-0.123,0.046-0.246,0.093-0.369,0.14c-0.255,0.102-0.496,0.225-0.745,0.335c0.029-0.271,0.073-0.538,0.092-0.812
				c0.008-0.131,0.015-0.262,0.021-0.394c0.056-1.229-1.631-1.638-2.144-0.52c-0.055,0.12-0.109,0.24-0.162,0.36
				c-0.108,0.25-0.19,0.507-0.288,0.76c-0.171-0.211-0.328-0.431-0.507-0.637c-0.092-0.104-0.185-0.207-0.278-0.31
				c-0.83-0.909-2.312-0.006-1.884,1.149c0.048,0.13,0.098,0.26,0.148,0.389c0.101,0.252,0.223,0.491,0.333,0.739
				c-0.269-0.029-0.534-0.073-0.805-0.092c-0.138-0.009-0.277-0.016-0.416-0.022c-1.23-0.056-1.639,1.631-0.52,2.144
				c0.126,0.058,0.253,0.115,0.38,0.17c0.25,0.107,0.505,0.189,0.758,0.287c-0.21,0.17-0.429,0.326-0.634,0.504
				c-0.104,0.092-0.207,0.184-0.31,0.278c-0.909,0.83-0.006,2.312,1.149,1.884c0.13-0.048,0.26-0.098,0.389-0.148
				c0.252-0.101,0.491-0.224,0.739-0.333c-0.029,0.269-0.073,0.534-0.092,0.805c-0.008,0.138-0.016,0.277-0.022,0.416
				c-0.056,1.23,1.631,1.639,2.144,0.52c0.058-0.126,0.115-0.253,0.171-0.38c0.108-0.251,0.19-0.508,0.288-0.762
				c0.17,0.211,0.327,0.43,0.506,0.636c0.087,0.098,0.175,0.196,0.264,0.294c0.83,0.909,2.312,0.005,1.884-1.149
				c-0.046-0.123-0.093-0.246-0.14-0.369C70.218,344.328,70.095,344.087,69.985,343.837z"/>
			<path d="M695.337,405.271c0.271,0.029,0.539,0.073,0.812,0.092c0.131,0.008,0.263,0.015,0.394,0.021
				c1.229,0.056,1.638-1.631,0.52-2.144c-0.12-0.055-0.24-0.109-0.36-0.162c-0.252-0.108-0.51-0.191-0.764-0.29
				c0.212-0.171,0.432-0.329,0.64-0.509c0.098-0.087,0.196-0.175,0.294-0.264c0.909-0.829,0.005-2.312-1.148-1.884
				c-0.124,0.046-0.247,0.093-0.369,0.14c-0.255,0.102-0.496,0.225-0.745,0.335c0.029-0.271,0.073-0.539,0.092-0.812
				c0.008-0.131,0.015-0.262,0.021-0.394c0.056-1.229-1.631-1.638-2.144-0.52c-0.055,0.12-0.109,0.24-0.162,0.36
				c-0.108,0.251-0.19,0.507-0.288,0.76c-0.171-0.211-0.328-0.431-0.507-0.637c-0.092-0.104-0.184-0.207-0.278-0.31
				c-0.83-0.909-2.312-0.006-1.884,1.149c0.048,0.13,0.098,0.26,0.148,0.389c0.101,0.252,0.224,0.491,0.333,0.739
				c-0.269-0.029-0.534-0.073-0.805-0.092c-0.138-0.008-0.277-0.016-0.416-0.022c-1.23-0.056-1.639,1.631-0.52,2.144
				c0.126,0.058,0.253,0.115,0.38,0.171c0.25,0.107,0.505,0.189,0.758,0.287c-0.21,0.17-0.429,0.326-0.634,0.504
				c-0.104,0.092-0.207,0.184-0.31,0.278c-0.909,0.83-0.006,2.312,1.149,1.884c0.13-0.048,0.26-0.098,0.389-0.148
				c0.252-0.101,0.491-0.223,0.739-0.333c-0.029,0.269-0.073,0.534-0.092,0.805c-0.008,0.138-0.016,0.277-0.022,0.416
				c-0.056,1.23,1.631,1.639,2.144,0.52c0.058-0.126,0.115-0.253,0.171-0.38c0.108-0.251,0.19-0.508,0.289-0.762
				c0.17,0.211,0.327,0.43,0.506,0.636c0.087,0.098,0.175,0.196,0.264,0.293c0.829,0.909,2.312,0.005,1.883-1.148
				c-0.046-0.124-0.093-0.246-0.14-0.369C695.571,405.761,695.447,405.52,695.337,405.271z"/>
			<path d="M146.612,265.314c0.271,0.029,0.538,0.073,0.812,0.092c0.131,0.008,0.263,0.015,0.394,0.021
				c1.229,0.056,1.638-1.631,0.52-2.144c-0.12-0.055-0.24-0.109-0.36-0.162c-0.252-0.108-0.51-0.191-0.764-0.29
				c0.212-0.171,0.433-0.329,0.64-0.509c0.098-0.087,0.196-0.175,0.293-0.264c0.909-0.829,0.005-2.312-1.148-1.884
				c-0.123,0.046-0.246,0.093-0.369,0.14c-0.255,0.102-0.496,0.225-0.745,0.335c0.029-0.271,0.073-0.539,0.092-0.812
				c0.008-0.131,0.015-0.262,0.021-0.394c0.056-1.229-1.631-1.638-2.144-0.52c-0.055,0.12-0.109,0.24-0.162,0.36
				c-0.108,0.25-0.19,0.507-0.288,0.76c-0.171-0.211-0.328-0.431-0.507-0.637c-0.092-0.104-0.184-0.207-0.278-0.31
				c-0.83-0.909-2.312-0.006-1.884,1.149c0.048,0.13,0.098,0.26,0.148,0.389c0.101,0.252,0.223,0.491,0.333,0.738
				c-0.269-0.029-0.534-0.073-0.805-0.092c-0.138-0.008-0.277-0.016-0.416-0.022c-1.23-0.056-1.639,1.631-0.52,2.144
				c0.126,0.058,0.253,0.115,0.38,0.171c0.25,0.107,0.506,0.189,0.758,0.287c-0.21,0.17-0.429,0.326-0.634,0.504
				c-0.104,0.092-0.207,0.184-0.31,0.278c-0.909,0.83-0.006,2.312,1.149,1.884c0.13-0.048,0.26-0.098,0.389-0.148
				c0.252-0.101,0.491-0.224,0.739-0.333c-0.029,0.269-0.073,0.534-0.092,0.805c-0.008,0.138-0.016,0.277-0.022,0.416
				c-0.056,1.23,1.631,1.639,2.144,0.52c0.058-0.126,0.115-0.253,0.171-0.38c0.108-0.251,0.191-0.508,0.289-0.762
				c0.17,0.211,0.327,0.43,0.506,0.636c0.087,0.098,0.175,0.196,0.264,0.294c0.829,0.909,2.312,0.005,1.883-1.148
				c-0.046-0.124-0.093-0.246-0.14-0.369C146.846,265.805,146.722,265.563,146.612,265.314z"/>
			<g>
				<path style="fill:none;stroke:#000000;stroke-width:4;stroke-miterlimit:10;" d="M-3.987,358.155
					c0.965-11.138,7.91-20.927,16.036-28.606c8.126-7.679,17.597-13.823,25.747-21.476c18.996-17.838,29.977-43.911,29.466-69.964"
					/>
				<path style="fill:none;stroke:#000000;stroke-width:4;stroke-miterlimit:10;" d="M-15.576,347.387
					c3.139-19.934,12.039-38.608,23.301-55.352c11.262-16.744,24.883-31.748,38.45-46.685"/>
			</g>
			<g>
				<path d="M509.425,399.299c4.446,0.972,8.752,2.513,12.976,4.228c4.203,1.769,8.328,3.761,12.296,6.044
					c3.994,2.242,7.83,4.776,11.518,7.518c1.857,1.355,3.622,2.832,5.402,4.291c1.729,1.521,3.453,3.048,5.096,4.666
					c6.597,6.43,12.354,13.808,16.688,21.949l0.824,1.517l0.753,1.555c0.494,1.04,1.006,2.069,1.467,3.121
					c0.821,2.153,1.768,4.241,2.432,6.441c1.482,4.335,2.439,8.827,3.07,13.314c-1.71-4.218-3.267-8.419-5.343-12.385
					c-0.909-2.033-2.061-3.951-3.093-5.909c-1.183-1.883-2.193-3.852-3.468-5.667c-4.826-7.411-10.502-14.201-16.821-20.359
					c-6.288-6.196-13.27-11.687-20.583-16.756C525.27,407.871,517.559,403.303,509.425,399.299z"/>
			</g>
			<g>
				<path d="M696.401,368.393c3.746,2.585,7.145,5.644,10.404,8.832c3.219,3.23,6.28,6.638,9.086,10.256
					c2.846,3.589,5.434,7.388,7.807,11.324c1.204,1.959,2.278,3.994,3.371,6.019c1.023,2.063,2.039,4.13,2.946,6.25
					c3.666,8.451,6.195,17.461,7.118,26.638l0.187,1.716l0.107,1.724c0.063,1.15,0.146,2.296,0.173,3.444
					c-0.057,2.304,0.027,4.595-0.192,6.882c-0.272,4.573-1.09,9.092-2.208,13.484c0.017-4.552,0.169-9.029-0.247-13.486
					c-0.07-2.226-0.409-4.437-0.621-6.641c-0.38-2.191-0.568-4.396-1.06-6.559c-1.655-8.687-4.332-17.123-7.844-25.217
					c-3.469-8.118-7.847-15.846-12.692-23.309C707.812,382.333,702.409,375.182,696.401,368.393z"/>
			</g>
			<g>
				<path d="M650.502,422.163c4.539-0.335,9.105-0.085,13.643,0.355c4.533,0.498,9.054,1.232,13.509,2.29
					c4.468,1.011,8.866,2.347,13.182,3.924c2.166,0.77,4.279,1.683,6.401,2.574c2.091,0.965,4.178,1.938,6.214,3.021
					c8.155,4.284,15.776,9.715,22.25,16.284l1.222,1.219l1.165,1.276c0.77,0.856,1.553,1.697,2.295,2.574
					c1.401,1.83,2.903,3.562,4.166,5.481c2.656,3.733,4.853,7.766,6.737,11.888c-2.841-3.556-5.531-7.139-8.65-10.35
					c-1.451-1.69-3.101-3.2-4.648-4.783c-1.671-1.468-3.199-3.068-4.939-4.444c-6.737-5.728-14.113-10.62-21.924-14.722
					c-7.793-4.148-16.05-7.422-24.504-10.196C668.133,425.864,659.44,423.683,650.502,422.163z"/>
			</g>
			<g>
				<path d="M718.525,370.478c3.074,3.357,5.704,7.098,8.168,10.933c2.416,3.868,4.638,7.873,6.566,12.026
					c1.972,4.134,3.647,8.415,5.08,12.781c0.737,2.178,1.328,4.402,1.942,6.62c0.537,2.239,1.065,4.481,1.476,6.75
					c1.685,9.056,2.139,18.404,0.989,27.555l-0.201,1.715l-0.281,1.705c-0.195,1.134-0.37,2.27-0.6,3.396
					c-0.57,2.233-1,4.485-1.725,6.665c-1.287,4.397-3.093,8.619-5.164,12.65c1.033-4.433,2.181-8.763,2.772-13.201
					c0.429-2.186,0.592-4.417,0.878-6.612c0.118-2.221,0.428-4.412,0.432-6.63c0.327-8.837-0.398-17.658-2.014-26.332
					c-1.568-8.688-4.109-17.199-7.165-25.556C726.534,386.614,722.865,378.438,718.525,370.478z"/>
			</g>
			<g>
				<path d="M721.056,368.473c3.757,2.57,7.168,5.615,10.44,8.79c3.232,3.217,6.307,6.612,9.128,10.218
					c2.861,3.577,5.464,7.366,7.853,11.292c1.212,1.954,2.294,3.985,3.396,6.005c1.032,2.058,2.056,4.121,2.972,6.238
					c3.7,8.436,6.267,17.436,7.228,26.609l0.194,1.715l0.114,1.724c0.068,1.149,0.155,2.295,0.188,3.444
					c-0.047,2.304,0.046,4.595-0.164,6.883c-0.253,4.574-1.053,9.097-2.153,13.493c-0.002-4.552,0.132-9.03-0.302-13.485
					c-0.079-2.226-0.427-4.435-0.648-6.638c-0.389-2.19-0.586-4.393-1.087-6.554c-1.691-8.68-4.403-17.105-7.948-25.184
					c-3.502-8.104-7.912-15.814-12.788-23.257C732.524,382.366,727.092,375.238,721.056,368.473z"/>
			</g>
			<g>
				<path d="M497.825,403.411c9.517,2.266,18.669,5.915,27.481,10.193c8.816,4.292,17.286,9.359,25.202,15.212
					c1.992,1.445,3.909,2.992,5.844,4.515c1.877,1.596,3.786,3.152,5.59,4.833c3.652,3.306,7.144,6.799,10.35,10.542
					c6.514,7.38,12.054,15.655,16.073,24.559c-5.819-7.847-12.041-15.183-18.912-21.883c-0.852-0.843-1.703-1.684-2.598-2.483
					l-2.622-2.453c-1.813-1.567-3.556-3.204-5.416-4.715c-3.645-3.101-7.411-6.062-11.276-8.892
					c-7.694-5.713-15.785-10.898-24.07-15.809C515.145,412.181,506.626,407.621,497.825,403.411z"/>
			</g>
			<g>
				<path d="M305.763,426.594c-8.931,1.563-17.612,3.786-26.087,6.516c-8.441,2.815-16.682,6.128-24.456,10.313
					c-7.792,4.139-15.144,9.066-21.854,14.826c-1.733,1.384-3.254,2.991-4.917,4.467c-1.539,1.591-3.183,3.108-4.625,4.805
					c-3.104,3.226-5.776,6.821-8.601,10.391c1.864-4.131,4.041-8.174,6.68-11.92c1.254-1.925,2.748-3.664,4.14-5.501
					c0.737-0.881,1.517-1.725,2.283-2.585l1.159-1.281l1.216-1.225c6.443-6.6,14.038-12.068,22.172-16.39
					c2.031-1.092,4.114-2.076,6.2-3.05c2.118-0.902,4.226-1.824,6.389-2.605c4.308-1.598,8.701-2.955,13.163-3.987
					c4.45-1.079,8.967-1.835,13.498-2.355C296.658,426.553,301.222,426.28,305.763,426.594z"/>
			</g>
			<g>
				<path d="M326.067,451.194c-9.063-0.249-18.013,0.198-26.862,1.185c-8.833,1.076-17.569,2.679-26.021,5.23
					c-8.46,2.502-16.648,5.865-24.371,10.172c-1.974,1.011-3.785,2.283-5.709,3.397c-1.826,1.252-3.738,2.411-5.491,3.787
					c-3.685,2.542-7.02,5.533-10.5,8.468c2.65-3.677,5.59-7.204,8.922-10.349c1.613-1.637,3.423-3.043,5.154-4.565
					c0.898-0.716,1.831-1.388,2.752-2.078l1.391-1.025l1.436-0.958c7.629-5.183,16.161-9.027,24.995-11.641
					c2.208-0.665,4.445-1.214,6.684-1.753c2.255-0.461,4.505-0.945,6.779-1.279c4.541-0.707,9.115-1.161,13.694-1.283
					c4.576-0.171,9.153-0.011,13.696,0.384C317.153,449.338,321.681,449.981,326.067,451.194z"/>
			</g>
			<g>
				<path d="M47.624,346.586c-5.507,7.203-10.383,14.722-14.762,22.473c-4.298,7.791-8.112,15.813-10.99,24.159
					c-2.923,8.324-4.989,16.931-6.018,25.714c-0.335,2.192-0.365,4.405-0.587,6.618c-0.053,2.213-0.233,4.443-0.144,6.668
					c-0.096,4.476,0.377,8.93,0.72,13.469c-1.43-4.3-2.569-8.749-3.168-13.291c-0.383-2.266-0.463-4.557-0.685-6.85
					c-0.055-1.148-0.054-2.297-0.074-3.448l-0.017-1.727l0.064-1.725c0.263-9.219,2.141-18.387,5.192-27.079
					c0.753-2.18,1.618-4.315,2.491-6.445c0.946-2.098,1.871-4.205,2.932-6.245c2.084-4.095,4.394-8.07,6.975-11.854
					c2.54-3.81,5.349-7.428,8.328-10.88C40.902,352.728,44.073,349.433,47.624,346.586z"/>
			</g>
			<g>
				<path d="M14.491,341.88c-2.427,8.736-4.151,17.53-5.328,26.355c-1.086,8.832-1.637,17.697-1.199,26.514
					c0.388,8.814,1.677,17.571,3.995,26.105c0.505,2.16,1.303,4.224,1.92,6.36c0.775,2.074,1.439,4.21,2.351,6.242
					c1.579,4.189,3.676,8.147,5.686,12.232c-2.929-3.458-5.644-7.162-7.892-11.154c-1.2-1.96-2.128-4.056-3.188-6.102
					c-0.479-1.044-0.906-2.111-1.353-3.172l-0.659-1.597l-0.584-1.625c-3.19-8.654-4.863-17.861-5.27-27.064
					c-0.113-2.303-0.106-4.607-0.089-6.909c0.096-2.3,0.169-4.6,0.394-6.888c0.409-4.577,1.071-9.126,2.057-13.599
					c0.938-4.482,2.197-8.886,3.675-13.199C10.541,350.084,12.256,345.845,14.491,341.88z"/>
			</g>
			<g>
				<path d="M45.935,348.76c-2.127,8.813-3.55,17.661-4.424,26.522c-0.784,8.864-1.031,17.742-0.292,26.54
					c0.689,8.796,2.276,17.503,4.884,25.953c0.579,2.141,1.446,4.177,2.137,6.291c0.845,2.046,1.582,4.158,2.563,6.158
					c1.721,4.133,3.953,8.017,6.1,12.03c-3.046-3.356-5.885-6.965-8.268-10.878c-1.266-1.918-2.265-3.981-3.394-5.99
					c-0.514-1.028-0.977-2.079-1.461-3.124l-0.713-1.573l-0.639-1.604c-3.484-8.54-5.47-17.685-6.192-26.868
					c-0.192-2.298-0.263-4.6-0.325-6.902c0.018-2.302,0.012-4.603,0.158-6.897c0.252-4.588,0.758-9.158,1.591-13.661
					c0.784-4.511,1.892-8.956,3.222-13.317C42.267,357.094,43.837,352.799,45.935,348.76z"/>
			</g>
			<g>
				<path d="M280.968,388.606c-6.1,6.707-11.6,13.783-16.624,21.133c-4.947,7.397-9.43,15.064-13.009,23.134
					c-3.622,8.045-6.414,16.444-8.188,25.107c-0.521,2.156-0.739,4.358-1.149,6.543c-0.242,2.201-0.611,4.407-0.711,6.632
					c-0.477,4.451-0.386,8.93-0.431,13.482c-1.058-4.407-1.814-8.936-2.024-13.513c-0.189-2.29-0.073-4.58-0.098-6.884
					c0.043-1.148,0.142-2.293,0.22-3.442l0.131-1.723l0.211-1.713c1.048-9.163,3.7-18.138,7.481-26.539
					c0.936-2.108,1.98-4.161,3.031-6.209c1.121-2.01,2.222-4.031,3.453-5.973c2.426-3.903,5.066-7.667,7.96-11.216
					c2.855-3.579,5.962-6.945,9.225-10.131C273.746,394.152,277.187,391.139,280.968,388.606z"/>
			</g>
			<g>
				<path d="M58.821,365.941c-6.1,6.707-11.6,13.783-16.624,21.133c-4.947,7.397-9.43,15.064-13.009,23.134
					c-3.622,8.045-6.414,16.444-8.188,25.107c-0.521,2.156-0.739,4.358-1.149,6.543c-0.242,2.201-0.611,4.407-0.711,6.632
					c-0.477,4.451-0.386,8.93-0.431,13.482c-1.058-4.407-1.814-8.936-2.024-13.513c-0.189-2.29-0.073-4.58-0.098-6.884
					c0.043-1.148,0.142-2.293,0.22-3.442l0.13-1.723l0.211-1.713c1.048-9.163,3.7-18.138,7.481-26.539
					c0.936-2.108,1.98-4.161,3.031-6.209c1.121-2.01,2.222-4.031,3.453-5.973c2.426-3.903,5.066-7.666,7.96-11.216
					c2.855-3.579,5.962-6.945,9.225-10.131C51.6,371.487,55.04,368.475,58.821,365.941z"/>
			</g>
		</g>
	</g>
</g>
</svg>
